<svg width="152" height="94" viewBox="0 0 152 94" fill="none" xmlns="http://www.w3.org/2000/svg">
<path d="M152 30.55L83.2312 59.831C77.5285 62.2437 72.7384 63.4539 68.8648 63.4539C64.4782 63.4539 61.2939 61.9186 59.3199 58.844C58.0783 56.87 57.7141 54.3672 58.2233 51.3318C58.7324 48.2964 60.0876 45.0652 62.2809 41.6263C64.11 38.8455 67.1063 35.1912 71.2775 30.6597C69.8627 32.8869 68.8252 35.3325 68.2068 37.8977C67.1102 42.5781 68.0972 46.013 71.1678 48.2063C72.6288 49.2286 74.638 49.7417 77.1995 49.7417C79.244 49.7417 81.547 49.4127 84.1085 48.7547L152 30.55Z" fill="#FAFF23"/>
<path d="M14.49 58H10.899L4.893 48.907V58H1.302V43.258H4.893L10.899 52.393V43.258H14.49V58ZM20.684 43.258V58H17.093V43.258H20.684ZM31.8334 58L26.8774 51.49V58H23.2864V43.258H26.8774V49.726L31.7914 43.258H36.0124L30.3004 50.482L36.2224 58H31.8334ZM41.52 46.135V49.117H46.329V51.889H41.52V55.123H46.959V58H37.929V43.258H46.959V46.135H41.52Z" fill="white"/>
</svg>
